<?xml version="1.0" standalone="no"?>
<!DOCTYPE svg PUBLIC "-//W3C//DTD SVG 20010904//EN"
 "http://www.w3.org/TR/2001/REC-SVG-20010904/DTD/svg10.dtd">
<svg version="1.0" xmlns="http://www.w3.org/2000/svg"
 width="700.000000pt" height="700.000000pt" viewBox="0 0 700.000000 700.000000"
 preserveAspectRatio="xMidYMid meet">
<metadata>
Created by potrace 1.14, written by Peter Selinger 2001-2017
</metadata>
<g transform="translate(0.000000,700.000000) scale(0.100000,-0.100000)"
fill="#000000" stroke="none">
<path d="M3278 6995 c-1 -1 -41 -6 -88 -9 -47 -4 -96 -8 -110 -10 -14 -2 -46
-7 -71 -10 -25 -4 -57 -9 -70 -11 -13 -2 -41 -6 -61 -9 -177 -27 -545 -134
-705 -207 -24 -10 -45 -19 -48 -19 -10 0 -311 -150 -360 -180 -27 -17 -58 -33
-67 -36 -10 -4 -18 -10 -18 -15 0 -5 -5 -9 -11 -9 -9 0 -194 -121 -239 -157
-8 -6 -51 -40 -95 -74 -448 -348 -825 -843 -1055 -1384 -101 -238 -206 -610
-234 -830 -10 -82 -17 -142 -26 -215 -9 -82 -6 -598 4 -670 42 -293 46 -316
98 -520 98 -384 282 -785 513 -1116 33 -47 65 -91 70 -98 6 -6 46 -56 90 -111
89 -111 324 -353 425 -436 36 -30 67 -56 70 -59 3 -3 43 -35 90 -72 408 -315
921 -547 1430 -647 123 -24 162 -31 210 -36 19 -2 67 -8 105 -14 123 -17 206
-23 352 -25 150 -2 182 7 61 17 -40 3 -82 8 -93 10 -11 3 -40 8 -65 11 -25 3
-56 8 -70 11 -14 3 -38 8 -55 10 -119 21 -330 96 -455 162 -350 186 -560 481
-608 853 -8 65 -8 242 0 335 29 312 214 603 682 1070 210 210 270 268 440 420
49 44 94 85 100 90 6 6 45 39 86 75 41 36 87 76 101 90 15 14 39 36 55 50 16
14 78 68 137 120 l109 95 -54 12 c-114 27 -215 37 -368 37 -279 0 -500 -51
-756 -174 -350 -169 -632 -451 -802 -803 -78 -160 -140 -363 -158 -512 -2 -24
-7 -54 -9 -66 -7 -32 -7 -305 0 -349 10 -73 15 -120 11 -120 -2 0 -11 33 -21
72 -22 90 -20 83 -29 143 -4 28 -10 64 -13 80 -18 107 -4 479 21 563 3 9 8 31
10 47 6 34 45 162 75 248 30 85 123 266 182 355 240 358 600 621 1006 736 48
14 100 27 115 30 15 3 31 7 35 9 8 5 61 12 203 26 228 23 530 -16 747 -96 23
-8 46 -14 51 -12 20 8 222 199 427 404 176 175 298 308 430 466 44 52 175 232
175 240 0 12 -268 209 -284 209 -2 0 -43 23 -92 51 -140 81 -299 151 -475 209
-102 33 -311 86 -379 95 -25 3 -52 8 -60 10 -8 2 -46 7 -85 10 -38 4 -83 9
-100 11 -33 4 -371 3 -420 -1 -68 -5 -163 -17 -210 -25 -27 -5 -66 -12 -85
-15 -110 -18 -377 -95 -465 -134 -11 -5 -49 -21 -85 -36 -553 -233 -1033 -677
-1314 -1216 -132 -252 -218 -504 -271 -789 -1 -8 -6 -40 -10 -70 -4 -30 -9
-62 -10 -70 -21 -112 -21 -495 0 -630 2 -14 7 -45 10 -70 52 -393 244 -871
473 -1175 63 -85 69 -93 41 -65 -139 144 -333 464 -444 735 -57 139 -127 367
-148 485 -28 150 -31 170 -44 285 -10 83 -9 485 1 570 8 68 40 267 51 313 3
12 7 30 9 40 23 99 87 302 115 367 5 11 19 45 31 75 12 30 46 102 75 160 290
581 783 1050 1377 1309 125 54 352 132 422 145 12 2 39 9 61 14 43 12 55 14
185 37 143 24 167 26 405 30 224 3 399 -10 545 -40 14 -2 50 -10 80 -16 123
-25 355 -95 445 -134 17 -7 59 -26 95 -41 186 -80 439 -233 601 -363 42 -33
80 -61 84 -61 10 0 90 176 118 260 22 66 39 136 52 220 12 70 5 233 -13 325
-51 257 -169 475 -361 665 -219 216 -503 366 -891 471 -98 27 -94 26 -375 64
-43 6 -551 16 -557 10z"/>
<path d="M6149 5735 c129 -263 200 -472 237 -700 3 -16 7 -41 10 -55 28 -161
23 -450 -11 -630 -46 -238 -101 -406 -206 -626 -41 -86 -179 -333 -199 -357
-6 -7 -42 -58 -80 -114 -101 -149 -388 -511 -439 -553 -3 -3 -24 -25 -45 -50
-55 -63 -205 -223 -516 -550 -429 -451 -598 -678 -674 -903 -96 -285 46 -551
344 -646 104 -34 107 -34 262 -37 221 -3 377 35 613 151 160 79 273 152 372
242 474 425 814 951 1003 1548 35 111 67 229 75 274 3 19 7 37 9 40 6 9 44
229 52 296 3 33 8 68 10 79 22 118 21 603 -1 746 -2 14 -7 43 -9 65 -75 603
-327 1211 -701 1690 -38 50 -82 104 -98 121 -15 18 -35 40 -43 50 -8 11 8 -26
35 -81z"/>
</g>
</svg>
