<svg width="121" height="119" viewBox="0 0 121 119" fill="none" xmlns="http://www.w3.org/2000/svg">
<path fill-rule="evenodd" clip-rule="evenodd" d="M60.9231 118.784L5.41211 21.284H116.433L60.9231 118.784Z" fill="#3A9877"/>
<path fill-rule="evenodd" clip-rule="evenodd" d="M72.3601 21.156C72.3601 27.508 67.2121 32.656 60.8601 32.656C54.5091 32.656 49.3601 27.508 49.3601 21.156C59.3601 21.156 62.3601 21.156 72.3601 21.156Z" fill="#348A6A"/>
<path opacity="0.8" d="M60.9231 21.278L5.41211 118.778H116.433L60.9231 21.278Z" fill="url(#paint0_linear_363_349)"/>
<path d="M88.6241 17.787C88.6241 33.494 76.0871 46.228 60.6221 46.228C45.1571 46.228 32.6191 33.494 32.6191 17.787C56.9691 17.787 64.2741 17.787 88.6241 17.787Z" fill="url(#paint1_linear_363_349)"/>
<path opacity="0.2" fill-rule="evenodd" clip-rule="evenodd" d="M112.704 77C114.913 77 116.704 78.791 116.704 81C116.704 83.209 114.913 85 112.704 85C110.495 85 108.704 83.209 108.704 81C108.704 78.791 110.495 77 112.704 77Z" fill="#348A6A"/>
<path fill-rule="evenodd" clip-rule="evenodd" d="M112.704 60.05C116.957 60.05 120.404 63.497 120.404 67.75C120.404 72.003 112.704 80.95 112.704 80.95C112.704 80.95 105.004 72.003 105.004 67.75C105.004 63.497 108.451 60.05 112.704 60.05Z" fill="#348A6A"/>
<path fill-rule="evenodd" clip-rule="evenodd" d="M112.704 64.437C114.533 64.437 116.017 65.921 116.017 67.75C116.017 69.579 114.533 71.063 112.704 71.063C110.875 71.063 109.391 69.579 109.391 67.75C109.391 65.921 110.875 64.437 112.704 64.437Z" fill="white"/>
<path opacity="0.2" fill-rule="evenodd" clip-rule="evenodd" d="M10.2041 91C13.2421 91 15.7041 93.462 15.7041 96.5C15.7041 99.538 13.2421 102 10.2041 102C7.1661 102 4.7041 99.538 4.7041 96.5C4.7041 93.462 7.1661 91 10.2041 91Z" fill="#348A6A"/>
<path fill-rule="evenodd" clip-rule="evenodd" d="M10.192 69.046C15.82 69.046 20.383 73.609 20.383 79.238C20.383 84.866 10.192 96.709 10.192 96.709C10.192 96.709 0 84.866 0 79.238C0 73.609 4.563 69.046 10.192 69.046Z" fill="#348A6A"/>
<path fill-rule="evenodd" clip-rule="evenodd" d="M10.1921 74.853C12.6131 74.853 14.5761 76.816 14.5761 79.238C14.5761 81.659 12.6131 83.622 10.1921 83.622C7.77013 83.622 5.80713 81.659 5.80713 79.238C5.80713 76.816 7.77013 74.853 10.1921 74.853Z" fill="white"/>
<path fill-rule="evenodd" clip-rule="evenodd" d="M61.7039 0.0499878C65.9569 0.0499878 69.4039 3.49699 69.4039 7.74999C69.4039 12.003 61.7039 20.95 61.7039 20.95C61.7039 20.95 54.0039 12.003 54.0039 7.74999C54.0039 3.49699 57.4509 0.0499878 61.7039 0.0499878Z" fill="#348A6A"/>
<path fill-rule="evenodd" clip-rule="evenodd" d="M61.7041 4.43701C63.5331 4.43701 65.0171 5.92101 65.0171 7.75001C65.0171 9.57901 63.5331 11.063 61.7041 11.063C59.8751 11.063 58.3911 9.57901 58.3911 7.75001C58.3911 5.92101 59.8751 4.43701 61.7041 4.43701Z" fill="white"/>
<path fill-rule="evenodd" clip-rule="evenodd" d="M58.059 62.411H60.573C62.143 62.411 63.327 62.775 64.124 63.501C64.921 64.228 65.319 65.265 65.319 66.612C65.319 67.948 64.938 68.968 64.177 69.671C63.415 70.374 62.372 70.726 61.048 70.726C59.77 70.726 58.754 70.374 57.998 69.671C57.242 68.968 56.864 68.054 56.864 66.929H52.593C52.593 69.108 53.378 70.855 54.948 72.167C56.518 73.48 58.534 74.136 60.995 74.136C63.561 74.136 65.633 73.456 67.209 72.097C68.785 70.737 69.573 68.909 69.573 66.612C69.573 65.183 69.207 63.952 68.475 62.921C67.742 61.89 66.673 61.134 65.267 60.653C66.427 60.138 67.373 59.373 68.105 58.359C68.838 57.346 69.204 56.265 69.204 55.116C69.204 52.831 68.475 51.047 67.016 49.764C65.557 48.481 63.55 47.839 60.995 47.839C59.448 47.839 58.051 48.141 56.803 48.744C55.555 49.348 54.582 50.189 53.885 51.267C53.187 52.345 52.839 53.54 52.839 54.853H57.11C57.11 53.786 57.479 52.922 58.218 52.26C58.956 51.598 59.899 51.267 61.048 51.267C62.36 51.267 63.336 51.604 63.975 52.277C64.613 52.951 64.933 53.898 64.933 55.116C64.933 56.382 64.549 57.349 63.781 58.017C63.013 58.685 61.973 59.025 60.661 59.036H58.059V62.411Z" fill="white"/>
<defs>
<linearGradient id="paint0_linear_363_349" x1="5.41211" y1="21.278" x2="5.41211" y2="118.778" gradientUnits="userSpaceOnUse">
<stop stop-color="#58BA98"/>
<stop offset="0.81" stop-color="#58BA98" stop-opacity="0"/>
</linearGradient>
<linearGradient id="paint1_linear_363_349" x1="60.6216" y1="17.787" x2="51.7551" y2="48.0283" gradientUnits="userSpaceOnUse">
<stop stop-color="white" stop-opacity="0.53"/>
<stop offset="1" stop-color="white" stop-opacity="0"/>
</linearGradient>
</defs>
</svg>
