<svg width="150" height="98" viewBox="0 0 150 98" fill="none" xmlns="http://www.w3.org/2000/svg">
<path fill-rule="evenodd" clip-rule="evenodd" d="M72.219 97.7841L16.708 0.284058H127.729L72.219 97.7841Z" fill="#348A6A"/>
<path opacity="0.8" d="M72.219 0.277954L16.708 97.778H127.729L72.219 0.277954Z" fill="url(#paint0_linear_363_405)"/>
<path fill-rule="evenodd" clip-rule="evenodd" d="M91.57 44.605C90.346 46.266 88.484 47.097 85.984 47.097C83.526 47.097 81.674 46.287 80.43 44.667C79.185 43.047 78.547 40.649 78.516 37.472V33.534C78.516 30.263 79.127 27.81 80.352 26.175C81.575 24.54 83.443 23.722 85.953 23.722C88.443 23.722 90.299 24.519 91.523 26.112C92.747 27.706 93.375 30.092 93.406 33.269V37.206C93.406 40.477 92.794 42.943 91.57 44.605ZM89.609 32.956C89.609 30.821 89.318 29.256 88.734 28.261C88.151 27.266 87.224 26.769 85.953 26.769C84.713 26.769 83.802 27.24 83.219 28.183C82.635 29.126 82.328 30.597 82.297 32.597V37.753C82.297 39.878 82.594 41.461 83.188 42.503C83.781 43.545 84.713 44.065 85.984 44.065C87.203 44.065 88.104 43.584 88.688 42.62C89.271 41.657 89.578 40.149 89.609 38.097V32.956ZM68.597 47.097C66.138 47.097 64.287 46.287 63.042 44.667C61.797 43.047 61.159 40.649 61.128 37.472V33.534C61.128 30.263 61.74 27.81 62.964 26.175C64.188 24.54 66.055 23.722 68.566 23.722C71.055 23.722 72.912 24.519 74.136 26.112C75.36 27.706 75.988 30.092 76.019 33.269V37.206C76.019 40.477 75.407 42.943 74.183 44.605C72.959 46.266 71.097 47.097 68.597 47.097ZM72.222 32.956C72.222 30.821 71.93 29.256 71.347 28.261C70.763 27.266 69.836 26.769 68.566 26.769C67.326 26.769 66.415 27.24 65.831 28.183C65.248 29.126 64.941 30.597 64.909 32.597V37.753C64.909 39.878 65.206 41.461 65.8 42.503C66.394 43.545 67.326 44.065 68.597 44.065C69.816 44.065 70.717 43.584 71.3 42.62C71.883 41.657 72.191 40.149 72.222 38.097V32.956ZM52.703 28.508L47.125 30.409V27.222L56 23.956H56.484V46.784H52.703V28.508Z" fill="white"/>
<path fill-rule="evenodd" clip-rule="evenodd" d="M34.237 55.763C35.348 57.582 36 59.712 36 62C36 68.627 30.627 74 24 74C17.373 74 12 68.627 12 62C12 55.373 17.373 50 24 50H40L34.237 55.763Z" fill="#258161"/>
<path fill-rule="evenodd" clip-rule="evenodd" d="M18 65V63H29V65H18ZM21 59H29V61H21V59Z" fill="white"/>
<path fill-rule="evenodd" clip-rule="evenodd" d="M121 72C114.373 72 109 66.627 109 60C109 57.712 109.652 55.582 110.763 53.763L105 48H121C127.627 48 133 53.373 133 60C133 66.627 127.627 72 121 72Z" fill="#258161"/>
<path fill-rule="evenodd" clip-rule="evenodd" d="M115 63V61H126V63H115ZM118 57H126V59H118V57Z" fill="white"/>
<path fill-rule="evenodd" clip-rule="evenodd" d="M142.5 15C138.358 15 135 11.642 135 7.5C135 6.467 135.209 5.483 135.587 4.587L131 0H142L141.968 0.027C142.144 0.014 142.32 0 142.5 0C146.642 0 150 3.358 150 7.5C150 11.642 146.642 15 142.5 15Z" fill="#258161"/>
<path fill-rule="evenodd" clip-rule="evenodd" d="M139 9V8H145V9H139ZM141 5H145V6H141V5Z" fill="white"/>
<path fill-rule="evenodd" clip-rule="evenodd" d="M3.5 22C5.433 22 7 23.567 7 25.5C7 27.433 5.433 29 3.5 29C1.567 29 0 27.433 0 25.5C0 23.567 1.567 22 3.5 22Z" fill="#258161"/>
<defs>
<linearGradient id="paint0_linear_363_405" x1="16.708" y1="0.277954" x2="16.708" y2="97.778" gradientUnits="userSpaceOnUse">
<stop stop-color="#58BA98"/>
<stop offset="0.81" stop-color="#58BA98" stop-opacity="0"/>
</linearGradient>
</defs>
</svg>
