<svg width="132" height="98" viewBox="0 0 132 98" fill="none" xmlns="http://www.w3.org/2000/svg">
<path fill-rule="evenodd" clip-rule="evenodd" d="M66.219 97.5061L10.708 0.00610352H121.729L66.219 97.5061Z" fill="#348A6A"/>
<path opacity="0.8" d="M66.219 0L10.708 97.5H121.729L66.219 0Z" fill="url(#paint0_linear_363_430)"/>
<path fill-rule="evenodd" clip-rule="evenodd" d="M83.1331 45.054C81.7561 46.923 79.6611 47.858 76.8491 47.858C74.0831 47.858 72.0001 46.947 70.6001 45.124C69.1991 43.302 68.4821 40.604 68.4471 37.03V32.6C68.4471 28.92 69.1351 26.161 70.5121 24.321C71.8891 22.481 73.9901 21.561 76.8141 21.561C79.6151 21.561 81.7031 22.457 83.0801 24.25C84.4571 26.043 85.1631 28.727 85.1991 32.301V36.731C85.1991 40.411 84.5101 43.185 83.1331 45.054ZM80.9271 31.95C80.9271 29.547 80.5991 27.787 79.9431 26.667C79.2861 25.548 78.2431 24.989 76.8141 24.989C75.4191 24.989 74.3941 25.519 73.7381 26.579C73.0811 27.64 72.7361 29.295 72.7011 31.545V37.346C72.7011 39.737 73.0351 41.518 73.7021 42.69C74.3701 43.862 75.4191 44.448 76.8491 44.448C78.2201 44.448 79.2341 43.906 79.8901 42.822C80.5461 41.738 80.8921 40.042 80.9271 37.733V31.95ZM48.4161 44.571L56.9411 35.272C58.1721 33.901 59.0481 32.755 59.5691 31.835C60.0911 30.916 60.3521 29.993 60.3521 29.067C60.3521 27.848 60.0091 26.864 59.3231 26.114C58.6381 25.364 57.7151 24.989 56.5551 24.989C55.1721 24.989 54.1001 25.411 53.3381 26.254C52.5761 27.098 52.1951 28.252 52.1951 29.717H47.9241C47.9241 28.159 48.2781 26.755 48.9871 25.507C49.6961 24.259 50.7101 23.29 52.0281 22.598C53.3471 21.907 54.8671 21.561 56.5901 21.561C59.0741 21.561 61.0341 22.185 62.4701 23.433C63.9051 24.681 64.6231 26.407 64.6231 28.61C64.6231 29.887 64.2631 31.226 63.5421 32.626C62.8211 34.027 61.6411 35.618 60.0001 37.399L53.7421 44.096H65.6251V47.506H48.4161V44.571Z" fill="white"/>
<path d="M124.486 41.958C121.392 47.883 117.432 53.284 112.774 57.992M92.0019 72.231C83.8819 75.763 74.9199 77.722 65.4999 77.722C56.0799 77.722 47.1179 75.763 38.9979 72.231M18.2309 57.997C13.5709 53.288 9.60892 47.885 6.51392 41.958" stroke="#348A6A" stroke-width="1.5"/>
<path d="M1 42.722C1 39.408 3.686 36.722 7 36.722C10.314 36.722 13 39.408 13 42.722" stroke="#348A6A" stroke-width="1.5"/>
<path fill-rule="evenodd" clip-rule="evenodd" d="M7 27.722C9.209 27.722 11 29.513 11 31.722C11 33.931 9.209 35.722 7 35.722C4.791 35.722 3 33.931 3 31.722C3 29.513 4.791 27.722 7 27.722Z" fill="#348A6A"/>
<path d="M119 42.722C119 39.408 121.686 36.722 125 36.722C128.314 36.722 131 39.408 131 42.722" stroke="#348A6A" stroke-width="1.5"/>
<path fill-rule="evenodd" clip-rule="evenodd" d="M125 27.722C127.209 27.722 129 29.513 129 31.722C129 33.931 127.209 35.722 125 35.722C122.791 35.722 121 33.931 121 31.722C121 29.513 122.791 27.722 125 27.722Z" fill="#348A6A"/>
<path d="M98 71.722C98 68.408 100.686 65.722 104 65.722C107.314 65.722 110 68.408 110 71.722" stroke="#348A6A" stroke-width="1.5"/>
<path fill-rule="evenodd" clip-rule="evenodd" d="M104 56.722C106.209 56.722 108 58.513 108 60.722C108 62.931 106.209 64.722 104 64.722C101.791 64.722 100 62.931 100 60.722C100 58.513 101.791 56.722 104 56.722Z" fill="#348A6A"/>
<path d="M21 71.722C21 68.408 23.686 65.722 27 65.722C30.314 65.722 33 68.408 33 71.722" stroke="#348A6A" stroke-width="1.5"/>
<path fill-rule="evenodd" clip-rule="evenodd" d="M27 56.722C29.209 56.722 31 58.513 31 60.722C31 62.931 29.209 64.722 27 64.722C24.791 64.722 23 62.931 23 60.722C23 58.513 24.791 56.722 27 56.722Z" fill="#348A6A"/>
<path fill-rule="evenodd" clip-rule="evenodd" d="M124.5 8.72205C125.881 8.72205 127 9.84105 127 11.222C127 12.603 125.881 13.722 124.5 13.722C123.119 13.722 122 12.603 122 11.222C122 9.84105 123.119 8.72205 124.5 8.72205Z" fill="#348A6A"/>
<path fill-rule="evenodd" clip-rule="evenodd" d="M7.5 8.72205C8.881 8.72205 10 9.84105 10 11.222C10 12.603 8.881 13.722 7.5 13.722C6.119 13.722 5 12.603 5 11.222C5 9.84105 6.119 8.72205 7.5 8.72205Z" fill="#348A6A"/>
<defs>
<linearGradient id="paint0_linear_363_430" x1="10.708" y1="0" x2="10.708" y2="97.5" gradientUnits="userSpaceOnUse">
<stop stop-color="#58BA98"/>
<stop offset="0.81" stop-color="#58BA98" stop-opacity="0"/>
</linearGradient>
</defs>
</svg>
