<svg width="132" height="35" viewBox="0 0 132 35" fill="none" xmlns="http://www.w3.org/2000/svg">
<path fill-rule="evenodd" clip-rule="evenodd" d="M108.625 22.3091C109.963 20.9869 110.69 18.8759 110.69 16.8345C110.69 14.221 109.244 12.0868 106.19 12.0868C104.691 12.0827 103.248 12.6559 102.161 13.6874C100.792 15.0174 100.011 17.1593 100.011 19.2007C100.011 21.7601 101.558 23.9329 104.527 23.9329C106.182 23.9329 107.582 23.3298 108.625 22.3091ZM102.115 19.1079C102.115 17.6232 102.687 15.7443 103.684 14.739C104.295 14.1282 105.069 13.7493 105.95 13.7493C108.061 13.7493 108.587 15.4582 108.587 16.9041C108.587 18.3501 108.03 20.3064 107.048 21.2962C106.445 21.907 105.656 22.2705 104.821 22.2705C102.888 22.2705 102.115 20.8322 102.115 19.1079ZM84.562 23.8554C85.9616 23.8554 87.2761 23.5075 88.0571 23.2291L89.1551 17.4529H85.1961L84.8791 19.0458H86.905L86.3637 21.9146C85.8931 22.0972 85.3915 22.1865 84.8868 22.1775C82.7527 22.1775 81.6237 20.9789 81.6237 18.9299C81.6237 17.3679 82.281 15.8833 83.3094 15.0018C84.16 14.2749 85.2812 13.8651 86.5106 13.8651C87.539 13.8651 88.3896 14.0816 88.9386 14.3522L89.5495 12.682C89.1474 12.4655 88.1112 12.164 86.6575 12.164C84.7399 12.164 83.0156 12.7671 81.7552 13.8419C80.286 15.1255 79.4586 17.0431 79.4586 19.0768C79.4586 20.3835 79.8607 21.6285 80.7731 22.5254C81.6856 23.4224 82.9692 23.8554 84.562 23.8554ZM71.7726 12.4581C72.6848 12.2834 73.612 12.198 74.5408 12.2029C75.7316 12.2029 76.5899 12.3885 77.2858 12.8834C77.6259 13.0834 77.9073 13.3695 78.1014 13.713C78.2956 14.0565 78.3956 14.4451 78.3916 14.8397C78.3916 16.2934 77.2781 17.2754 76.01 17.6234V17.6698C77.077 17.9945 77.858 18.876 77.8503 20.1905C77.8426 21.5051 77.2008 22.3015 76.3734 22.8814C75.4223 23.5542 74.0614 23.8171 72.3216 23.8171C71.1694 23.8171 70.2184 23.7475 69.6616 23.6315L71.7726 12.4581ZM71.8654 22.1932C72.2116 22.2358 72.5604 22.2539 72.9092 22.2474C74.3861 22.2551 75.7548 21.652 75.7548 20.1209C75.7548 18.8992 74.7186 18.443 73.5124 18.443H72.5767L71.8654 22.1932ZM72.886 16.9738H73.8062C75.2831 16.9738 76.3579 16.2779 76.3579 15.1103C76.3579 14.1592 75.6156 13.7494 74.5408 13.7494C74.1853 13.7402 73.8299 13.7714 73.4814 13.8422L72.886 16.9738ZM45.8766 12.2799H47.8561L46.008 22.015H50.5083L50.1836 23.7394H43.696L45.8766 12.2799ZM55.7664 12.2799L53.5859 23.7394H51.6063L53.7869 12.2799H55.7664ZM66.3444 18.3499L65.5866 23.7394H67.512L69.0275 12.2799H66.3676L63.5994 17.6462C63.1045 18.6514 62.5555 19.8499 62.1457 20.9325H62.0838C62.0706 20.0056 61.978 19.005 61.8934 18.0909L61.8934 18.0909L61.8933 18.0901C61.8791 17.9369 61.8651 17.7861 61.8518 17.6385L61.2487 12.2799H58.6351L55.7123 23.7394H57.5526L58.8748 18.3576C59.0398 17.6656 59.2292 16.7754 59.4173 15.8913C59.5466 15.2836 59.6753 14.6789 59.795 14.1434H59.8337C59.8955 15.512 60.0038 16.9889 60.1352 18.2725L60.7384 23.6079H62.2771L65.0995 18.1875C65.7258 16.9657 66.3985 15.4888 66.9939 14.1434H67.048C66.7697 15.5584 66.5145 17.1823 66.3444 18.3499ZM92.279 12.4734C93.0136 12.2955 94.0807 12.2027 95.0936 12.2027C96.1066 12.2027 97.2665 12.4115 97.9856 12.9373C98.7047 13.4631 99.0604 14.0817 99.0604 15.0251C99.0604 16.703 97.8619 17.8474 96.4082 18.2959V18.35C97.1427 18.6361 97.483 19.4326 97.5758 20.5306C97.6039 20.8195 97.6298 21.1037 97.6547 21.3771L97.6548 21.3785L97.6553 21.3837L97.6553 21.3842C97.7534 22.4613 97.8362 23.3701 97.9778 23.7395H95.9287C95.8514 23.4689 95.7277 22.3786 95.6349 21.01C95.5421 19.6413 95.0086 19.0073 93.9647 19.0073H92.9904L92.0934 23.7395H90.1294L92.279 12.4734ZM93.2842 17.5072H94.4055C95.9442 17.5072 96.9958 16.5406 96.9958 15.3034C96.9958 14.2441 96.153 13.7647 95.0318 13.7647C94.676 13.7571 94.3205 13.7908 93.9724 13.8652L93.2842 17.5072ZM115.445 12.2799L114.177 18.9607C114.082 19.4211 114.036 19.8902 114.038 20.3603C114.046 21.5279 114.742 22.2625 115.917 22.2625C117.324 22.2625 118.306 21.3191 118.747 18.9839L120.031 12.2799H122.01L120.742 18.9453C120.077 22.4017 118.477 23.9327 115.662 23.9327C113.512 23.9327 112.059 22.8037 112.059 20.399C112.065 19.8642 112.119 19.3311 112.221 18.8061L113.458 12.2799H115.445ZM127.091 12.2027C126.062 12.2027 125.026 12.3032 124.33 12.4734L122.188 23.7395H124.129L124.956 19.4016C125.312 19.4574 125.671 19.4858 126.031 19.4867C127.384 19.4867 128.699 19.1387 129.611 18.4041C130.077 18.0301 130.452 17.5554 130.708 17.0157C130.963 16.4759 131.094 15.8852 131.088 15.288C131.088 14.275 130.771 13.6178 130.029 13.0146C129.287 12.4115 128.119 12.2027 127.091 12.2027ZM126.294 17.8629C125.946 17.8669 125.599 17.8359 125.258 17.7701L126 13.8884C126.224 13.8265 126.603 13.7879 127.106 13.7879C128.219 13.7879 129.093 14.2286 129.093 15.4503C129.093 16.8035 127.972 17.8629 126.294 17.8629Z" fill="white"/>
<path fill-rule="evenodd" clip-rule="evenodd" d="M14.2209 22.6808C12.4591 24.4567 11.1796 26.1207 10.9768 27.6169C10.2427 32.8955 14.5006 34.8602 18.5068 34.9581C18.2318 34.9814 17.9591 34.9953 17.6888 35H17.4091L16.8917 34.986C16.3599 34.9647 15.8299 34.911 15.3046 34.8252C6.67699 33.7555 0 26.4003 0 17.479C0 7.82361 7.82361 0 17.479 0C18.4936 0.00100275 19.5063 0.0875388 20.5064 0.258689C25.6662 1.43328 27.1205 4.32082 27.4001 6.53016C27.5469 7.71175 27.2113 8.92829 26.5471 10.1588C24.0231 7.99237 20.8053 6.80398 17.479 6.80983C9.76728 6.80983 3.51677 13.0603 3.51677 20.7721C3.5111 24.3138 4.85633 27.7244 7.27826 30.3086C5.19514 27.8763 4.05176 24.7785 4.05513 21.5761C4.05513 14.165 10.0609 8.15222 17.479 8.15222C20.5603 8.1477 23.5486 9.2072 25.9389 11.1516C24.6874 13.0184 22.7787 14.9061 20.7371 16.7589C19.698 16.3566 18.5933 16.1504 17.479 16.1506C15.0796 16.1506 12.7784 17.1038 11.0817 18.8005C9.38506 20.4971 8.43188 22.7983 8.43188 25.1978C8.43095 26.145 8.57961 27.0865 8.87235 27.9874C8.75979 27.4328 8.70357 26.8683 8.70455 26.3024C8.70353 24.9806 9.00382 23.6758 9.58262 22.4874C10.1614 21.299 11.0035 20.2581 12.0448 19.4439C13.0862 18.6297 14.2994 18.0635 15.5924 17.7885C16.8854 17.5134 18.224 17.5367 19.5066 17.8566C19.1469 18.1759 18.7861 18.4939 18.4272 18.8103C16.9234 20.1358 15.4514 21.4334 14.2209 22.6808ZM25.0728 23.9549C29.3543 19.4878 34.883 13.7194 30.4974 5.81697C32.0667 7.56889 33.2663 9.6195 34.0243 11.846C34.7823 14.0725 35.0832 16.4291 34.9089 18.7746C34.7346 21.1201 34.0887 23.4063 33.0099 25.4963C31.9311 27.5863 30.4416 29.4371 28.6306 30.9378L28.6656 30.9029C24.7153 33.7415 21.0028 32.49 20.9748 29.994C20.9509 28.2555 22.8427 26.2818 25.0728 23.9549Z" fill="#258161"/>
</svg>
