<svg width="150" height="41" viewBox="0 0 150 41" fill="none" xmlns="http://www.w3.org/2000/svg">
<path fill-rule="evenodd" clip-rule="evenodd" d="M124.296 25.5276C125.827 24.0146 126.659 21.5991 126.659 19.2632C126.659 16.2726 125.004 13.8306 121.509 13.8306C119.794 13.8259 118.144 14.4818 116.9 15.6621C115.333 17.184 114.44 19.6349 114.44 21.9707C114.44 24.8994 116.209 27.3857 119.607 27.3857C121.5 27.3857 123.102 26.6955 124.296 25.5276ZM116.846 21.8646C116.846 20.1657 117.501 18.0157 118.643 16.8654C119.342 16.1665 120.226 15.7329 121.235 15.7329C123.651 15.7329 124.252 17.6883 124.252 19.3429C124.252 20.9975 123.615 23.236 122.491 24.3685C121.801 25.0675 120.899 25.4834 119.943 25.4834C117.731 25.4834 116.846 23.8377 116.846 21.8646ZM96.7616 27.297C98.363 27.297 99.8672 26.8988 100.761 26.5803L102.017 19.9709H97.4871L97.1243 21.7936H99.4425L98.8231 25.0762C98.2847 25.2851 97.7107 25.3873 97.1332 25.377C94.6911 25.377 93.3993 24.0056 93.3993 21.6608C93.3993 19.8736 94.1514 18.1747 95.3282 17.1661C96.3015 16.3344 97.5844 15.8654 98.9912 15.8654C100.168 15.8654 101.141 16.1132 101.77 16.4228L102.468 14.5117C102.008 14.2639 100.823 13.9189 99.1594 13.9189C96.9651 13.9189 94.992 14.609 93.5497 15.8389C91.8686 17.3076 90.9219 19.5019 90.9219 21.8289C90.9219 23.3243 91.382 24.7488 92.426 25.7751C93.4701 26.8015 94.9389 27.297 96.7616 27.297ZM82.127 14.2554C83.1709 14.0556 84.2317 13.9578 85.2946 13.9635C86.6572 13.9635 87.6393 14.1758 88.4356 14.7421C88.8248 14.9709 89.1467 15.2984 89.3689 15.6914C89.591 16.0845 89.7056 16.5292 89.7009 16.9806C89.7009 18.644 88.4268 19.7677 86.9757 20.1659V20.219C88.1967 20.5906 89.0904 21.5993 89.0815 23.1034C89.0727 24.6076 88.3383 25.5189 87.3916 26.1825C86.3032 26.9523 84.746 27.2531 82.7552 27.2531C81.4369 27.2531 80.3486 27.1735 79.7115 27.0408L82.127 14.2554ZM82.2332 25.395C82.6294 25.4438 83.0285 25.4645 83.4277 25.457C85.1176 25.4658 86.6837 24.7757 86.6837 23.0238C86.6837 21.6258 85.4981 21.1038 84.1178 21.1038H83.0472L82.2332 25.395ZM83.4011 19.4227H84.454C86.144 19.4227 87.3739 18.6263 87.3739 17.2903C87.3739 16.202 86.5244 15.733 85.2946 15.733C84.8878 15.7226 84.4812 15.7582 84.0824 15.8392L83.4011 19.4227ZM52.4951 14.0515H54.7602L52.6455 25.1911H57.7951L57.4235 27.1642H50L52.4951 14.0515ZM63.8117 14.0515L61.3166 27.1642H59.0515L61.5466 14.0515H63.8117ZM75.9157 20.9972L75.0486 27.1642H77.2518L78.986 14.0515H75.9423L72.7747 20.192C72.2084 21.3422 71.5802 22.7137 71.1113 23.9524H71.0405C71.0253 22.8918 70.9194 21.7469 70.8226 20.7009L70.8226 20.7009L70.8225 20.6998L70.8218 20.6926L70.8216 20.6908C70.8057 20.5186 70.79 20.3491 70.775 20.1832L70.0849 14.0515H67.0943L63.7497 27.1642H65.8556L67.3686 21.006C67.5573 20.2143 67.7741 19.1957 67.9893 18.1841L67.9893 18.1839L67.9893 18.1839C68.1373 17.4886 68.2845 16.7966 68.4215 16.1839H68.4657C68.5365 17.75 68.6604 19.4399 68.8108 20.9087L69.5009 27.0138H71.2617L74.4912 20.8114C75.2079 19.4134 75.9776 17.7234 76.6589 16.1839H76.7209C76.4024 17.8031 76.1104 19.6611 75.9157 20.9972ZM105.592 14.2729C106.432 14.0694 107.653 13.9632 108.812 13.9632C109.972 13.9632 111.299 14.2021 112.122 14.8038C112.944 15.4054 113.352 16.1133 113.352 17.1927C113.352 19.1127 111.98 20.4222 110.317 20.9354V20.9974C111.157 21.3247 111.547 22.2361 111.653 23.4925C111.685 23.8258 111.715 24.1536 111.744 24.4689L111.744 24.4692L111.744 24.4694V24.4694V24.4695C111.856 25.702 111.951 26.7417 112.113 27.1644H109.768C109.68 26.8547 109.538 25.6071 109.432 24.0411C109.326 22.475 108.715 21.7494 107.521 21.7494H106.406L105.379 27.1644H103.132L105.592 14.2729ZM106.742 20.0329H108.025C109.786 20.0329 110.989 18.9269 110.989 17.5113C110.989 16.2991 110.025 15.7505 108.742 15.7505C108.335 15.7418 107.928 15.7804 107.53 15.8655L106.742 20.0329ZM132.1 14.0515L130.649 21.6962C130.541 22.223 130.487 22.7597 130.49 23.2976C130.499 24.6337 131.295 25.4742 132.64 25.4742C134.25 25.4742 135.374 24.3948 135.878 21.7227L137.347 14.0515H139.612L138.161 21.6785C137.4 25.6335 135.569 27.3854 132.348 27.3854C129.888 27.3854 128.225 26.0936 128.225 23.3419C128.232 22.73 128.294 22.12 128.411 21.5192L129.826 14.0515H132.1ZM145.425 13.9632C144.249 13.9632 143.063 14.0782 142.267 14.2729L139.816 27.1644H142.037L142.983 22.2007C143.39 22.2645 143.801 22.297 144.213 22.298C145.762 22.298 147.266 21.8999 148.31 21.0593C148.843 20.6313 149.272 20.0881 149.564 19.4705C149.857 18.8529 150.006 18.177 150 17.4936C150 16.3345 149.637 15.5824 148.788 14.8923C147.938 14.2021 146.602 13.9632 145.425 13.9632ZM144.514 20.4399C144.116 20.4446 143.719 20.409 143.328 20.3338L144.178 15.8921C144.434 15.8213 144.868 15.7771 145.443 15.7771C146.717 15.7771 147.717 16.2814 147.717 17.6794C147.717 19.2278 146.434 20.4399 144.514 20.4399Z" fill="white"/>
<path fill-rule="evenodd" clip-rule="evenodd" d="M16.2725 25.9528C14.2565 27.9849 12.7924 29.889 12.5604 31.601C11.7204 37.6412 16.5925 39.8893 21.1767 40.0013C20.862 40.028 20.55 40.044 20.2407 40.0493H19.9206L19.3286 40.0333C18.7201 40.0089 18.1136 39.9474 17.5126 39.8493C7.64025 38.6252 0 30.209 0 20.0006C0 8.95229 8.95229 0 20.0006 0C21.1616 0.00114742 22.3204 0.100168 23.4648 0.296009C29.3689 1.64005 31.033 4.94416 31.353 7.47224C31.521 8.82429 31.137 10.2163 30.377 11.6244C27.4888 9.14539 23.8068 7.78555 20.0006 7.79225C11.1764 7.79225 4.02412 14.9445 4.02412 23.7688C4.01763 27.8215 5.55693 31.7241 8.32827 34.6811C5.94462 31.8979 4.63629 28.3532 4.64015 24.6888C4.64015 16.2085 11.5124 9.3283 20.0006 9.3283C23.5264 9.32313 26.9459 10.5355 29.681 12.7604C28.2489 14.8965 26.0648 17.0566 23.7288 19.1766C22.5397 18.7163 21.2757 18.4803 20.0006 18.4806C17.255 18.4806 14.6219 19.5713 12.6804 21.5127C10.739 23.4542 9.64831 26.0873 9.64831 28.8329C9.64725 29.9169 9.81735 30.9942 10.1523 32.025C10.0235 31.3905 9.95919 30.7445 9.96032 30.097C9.95915 28.5844 10.3028 27.0914 10.9651 25.7316C11.6274 24.3717 12.5909 23.1807 13.7825 22.249C14.9741 21.3173 16.3624 20.6695 17.8418 20.3548C19.3213 20.04 20.8531 20.0667 22.3207 20.4327C21.9091 20.798 21.4963 21.1619 21.0856 21.524C19.3648 23.0408 17.6805 24.5255 16.2725 25.9528ZM28.6899 27.4108C33.5891 22.2992 39.9155 15.6986 34.8971 6.65616C36.6928 8.66082 38.0654 11.0073 38.9328 13.555C39.8002 16.1027 40.1445 18.7992 39.945 21.4831C39.7456 24.167 39.0065 26.7831 37.7721 29.1746C36.5377 31.5661 34.8333 33.6839 32.7611 35.4011L32.8011 35.3611C28.2809 38.6092 24.0328 37.1771 24.0008 34.3211C23.9734 32.3318 26.1381 30.0733 28.6899 27.4108Z" fill="#258161"/>
</svg>
