<svg width="20" height="363" viewBox="0 0 20 363" fill="none" xmlns="http://www.w3.org/2000/svg">
<path opacity="0.25" fill-rule="evenodd" clip-rule="evenodd" d="M13.9999 59L7.99994 68V119L13.9999 110V59ZM7.99994 129L13.9999 120V171L7.99994 180V129ZM13.9999 181L7.99994 190V241L13.9999 232V181ZM7.99994 251L13.9999 242V293L7.99994 302V251ZM7.99994 312L13.9999 303V354L7.99994 363V312Z" fill="#258161"/>
<path d="M8 68L14 59V63L8 72V68Z" fill="#258161"/>
<path d="M8 129L14 120V124L8 133V129Z" fill="#258161"/>
<path d="M8 190L14 181V185L8 194V190Z" fill="#258161"/>
<path d="M8 251L14 242V246L8 255V251Z" fill="#258161"/>
<path d="M8 313L14 304V308L8 317V313Z" fill="#258161"/>
<path d="M4.5 28.4395V37H3.08789V30.1152L0.996094 30.8242V29.6582L4.33008 28.4395H4.5Z" fill="#258161"/>
<path d="M14 9L20 0V51L14 60V9Z" fill="#34AC82"/>
</svg>
