<svg width="24" height="24" viewBox="0 0 24 24" fill="none" xmlns="http://www.w3.org/2000/svg">
<path d="M12.5 3C7.27496 3 2.99997 7.2655 2.99997 12.519C2.99997 17.269 6.47696 21.2115 11.018 21.924V15.274H8.60496V12.519H11.018V10.4195C11.018 8.03499 12.4335 6.724 14.609 6.724C15.6445 6.724 16.7275 6.9045 16.7275 6.9045V9.25099H15.5305C14.3525 9.25099 13.982 9.98249 13.982 10.733V12.519H16.623L16.1955 15.274H13.982V21.924C16.2206 21.5704 18.259 20.4282 19.7294 18.7035C21.1997 16.9789 22.005 14.7853 21.9999 12.519C21.9999 7.2655 17.725 3 12.5 3Z" fill="white"/>
</svg>
