<svg width="24" height="24" viewBox="0 0 24 24" fill="none" xmlns="http://www.w3.org/2000/svg">
<path fill-rule="evenodd" clip-rule="evenodd" d="M8.22 3H15.78C18.66 3 21 5.34 21 8.22V15.78C21 17.1644 20.45 18.4922 19.4711 19.4711C18.4922 20.45 17.1644 21 15.78 21H8.22C5.34 21 3 18.66 3 15.78V8.22C3 6.83557 3.54996 5.50784 4.5289 4.5289C5.50784 3.54996 6.83557 3 8.22 3ZM12.0001 7.90915C13.085 7.90915 14.1256 8.34016 14.8928 9.10735C15.66 9.87455 16.091 10.9151 16.091 12.0001C16.091 13.085 15.66 14.1256 14.8928 14.8928C14.1256 15.66 13.085 16.091 12.0001 16.091C10.9151 16.091 9.87455 15.66 9.10735 14.8928C8.34016 14.1256 7.90915 13.085 7.90915 12.0001C7.90915 10.9151 8.34016 9.87455 9.10735 9.10735C9.87455 8.34016 10.9151 7.90915 12.0001 7.90915ZM18.0662 5.5247C17.7593 5.21783 17.3431 5.04542 16.9091 5.04542C16.4751 5.04542 16.0589 5.21783 15.752 5.5247C15.4451 5.83158 15.2727 6.2478 15.2727 6.68179C15.2727 7.11578 15.4451 7.53199 15.752 7.83887C16.0589 8.14575 16.4751 8.31815 16.9091 8.31815C17.3431 8.31815 17.7593 8.14575 18.0662 7.83887C18.373 7.53199 18.5454 7.11578 18.5454 6.68179C18.5454 6.2478 18.373 5.83158 18.0662 5.5247Z" fill="#258161"/>
</svg>
